 <svg  version="1.0" xmlns="http://www.w3.org/2000/svg"  width="270.000000pt" height="262.000000pt" viewBox="0 0 270.000000 262.000000"  preserveAspectRatio="xMidYMid meet">  <g transform="translate(0.000000,262.000000) scale(0.050000,-0.050000)" fill="#fe5f46" stroke="none"> <path d="M1550 5160 l-780 -10 -134 -67 c-243 -122 -427 -362 -476 -622 -27 -143 -27 -3478 0 -3621 50 -265 240 -505 495 -626 l135 -64 1870 0 1870 0 136 64 c268 127 457 384 494 671 22 170 24 3146 3 3458 -25 357 -220 643 -517 758 -191 75 -900 88 -3096 59z m2985 -321 c145 -72 251 -183 322 -337 l51 -112 -5 -1749 c-4 -1694 -6 -1752 -44 -1838 -62 -140 -164 -249 -302 -324 l-127 -69 -1770 0 -1770 0 -126 68 c-147 80 -230 168 -302 321 l-52 111 0 1730 c0 1616 2 1737 36 1833 60 172 226 333 412 399 57 21 442 26 1814 27 l1742 1 121 -61z"/> <path d="M2507 4436 c-169 -163 -183 -189 -129 -243 l42 -41 80 78 c47 46 80 66 80 49 0 -16 2 -220 5 -454 3 -234 0 -425 -5 -425 -6 0 -87 77 -180 171 l-170 170 -273 -2 c-253 -3 -276 0 -315 39 -96 96 -270 17 -266 -120 4 -143 176 -212 272 -108 45 48 56 50 295 50 l248 0 178 -179 c99 -99 175 -183 170 -186 -5 -4 -106 -65 -225 -135 l-216 -129 5 -121 4 -120 -168 -6 -169 -5 -155 -154 -155 -154 0 -306 c0 -184 -8 -305 -19 -305 -11 0 -34 -27 -51 -60 -87 -169 120 -313 270 -187 63 53 64 53 318 42 l256 -12 168 169 c92 92 172 168 178 168 5 0 10 -202 10 -450 0 -482 -2 -489 -99 -376 l-64 73 -44 -44 c-56 -56 -46 -73 131 -248 l137 -135 157 158 c110 110 154 168 145 191 -23 61 -73 58 -140 -6 -36 -35 -71 -63 -79 -63 -8 0 -14 205 -14 455 l0 454 175 -173 175 -174 265 12 265 12 49 -53 c72 -77 171 -73 241 10 130 155 -101 356 -238 207 -45 -48 -56 -50 -284 -49 l-238 0 -189 176 -189 176 223 134 223 134 6 125 6 124 135 -7 134 -7 180 166 180 166 -1 298 c-1 282 1 300 43 345 119 126 -30 337 -182 258 -33 -16 -59 -39 -59 -50 0 -11 -111 -19 -279 -19 l-279 0 -181 -172 -181 -173 0 453 c0 484 1 488 86 382 65 -82 79 -85 136 -28 l42 42 -137 140 c-199 202 -186 200 -340 52z m1145 -881 c45 -43 47 -57 48 -318 l0 -274 -123 -111 c-123 -111 -125 -112 -249 -112 l-126 0 -6 122 -6 122 -215 130 -215 130 185 177 185 177 237 1 c219 1 241 -2 285 -44z m-808 -579 l176 -105 0 -211 0 -211 -183 -112 -183 -112 -152 91 c-237 141 -225 121 -218 352 l6 200 169 106 c205 128 171 128 385 2z m-744 -515 c0 -104 6 -123 45 -143 25 -14 125 -74 222 -134 l177 -109 -147 -149 c-199 -202 -209 -206 -480 -202 -318 4 -316 1 -317 356 l0 270 115 114 115 115 135 0 135 1 0 -119z"/> <path d="M3241 3425 l1 -95 182 -105 c204 -118 199 -118 211 2 l8 88 -109 63 c-60 34 -114 80 -120 102 -8 32 -27 40 -92 40 l-82 0 1 -95z"/> <path d="M2555 2858 c-47 -27 -95 -123 -95 -189 0 -248 314 -311 378 -76 49 184 -131 354 -283 265z m165 -78 c50 -50 53 -172 7 -223 -84 -93 -203 -1 -180 138 19 119 100 158 173 85z"/> <path d="M1680 2109 c0 -53 14 -85 55 -121 30 -27 90 -80 133 -118 121 -108 217 -102 208 15 -6 82 -10 86 -176 189 -203 126 -220 128 -220 35z"/> <path d="M1269 4143 l-259 -155 0 -329 0 -329 225 -129 225 -130 0 -166 0 -165 -152 0 -152 0 -117 121 c-103 107 -122 119 -158 100 -55 -30 -52 -64 11 -123 29 -26 70 -73 91 -103 l40 -55 -102 -107 c-97 -102 -99 -108 -64 -140 55 -50 82 -41 213 68 109 90 128 99 222 99 56 0 143 6 192 12 l90 13 18 221 18 221 223 132 224 131 8 90 c11 115 14 112 -91 103 -65 -5 -88 -15 -86 -38 2 -30 -337 -254 -365 -241 -7 3 -87 50 -178 104 l-165 97 0 215 0 215 173 103 c193 116 174 117 392 -12 105 -62 155 -104 155 -129 0 -31 16 -37 91 -37 l91 0 -6 94 c-7 104 -3 101 -417 332 l-131 73 -259 -156z"/> <path d="M3504 4146 l-264 -153 0 -97 0 -96 80 0 c65 0 84 9 99 45 10 25 89 88 181 143 l163 99 108 -59 c60 -32 142 -81 183 -109 l75 -50 1 -206 0 -206 -115 -70 c-115 -70 -115 -70 -115 -168 0 -123 1 -123 220 13 224 139 206 96 189 454 l-14 305 -192 113 c-106 62 -225 131 -264 154 l-71 42 -264 -154z"/> <path d="M4249 2931 c-35 -53 -35 -53 42 -132 l77 -79 -313 0 c-367 0 -340 20 -346 -257 l-5 -209 -232 -138 -232 -137 0 -90 0 -89 80 0 c68 0 84 8 100 50 10 28 28 50 39 50 11 0 85 40 165 89 l146 88 110 -62 c60 -34 140 -81 176 -104 l66 -41 10 -211 10 -211 -175 -99 c-96 -54 -181 -102 -188 -105 -27 -11 -355 200 -365 235 -6 26 -33 39 -93 44 -100 10 -109 0 -92 -112 l13 -85 264 -151 c305 -174 232 -179 599 39 l215 127 0 300 c0 352 20 316 -275 489 l-204 120 -1 155 c0 85 2 161 5 169 7 18 495 25 495 7 0 -8 -23 -36 -51 -62 -58 -54 -58 -125 -2 -136 36 -7 252 183 293 259 14 24 -19 68 -139 187 l-157 156 -35 -54z"/> <path d="M1180 2083 l-190 -116 -6 -178 c-4 -99 -1 -242 6 -320 l13 -141 261 -153 262 -153 62 32 c34 18 159 90 277 161 l215 129 0 87 c0 104 -7 110 -116 95 -63 -9 -84 -20 -84 -47 0 -24 -58 -71 -172 -140 l-172 -104 -83 46 c-46 26 -123 70 -173 99 l-90 53 -6 218 -5 219 110 66 c111 66 111 67 111 165 0 121 10 122 -220 -18z"/> </g> </svg> 